<?xml version="1.0" encoding="utf-8"?>
<!-- Generator: Adobe Illustrator 27.7.0, SVG Export Plug-In . SVG Version: 6.00 Build 0)  -->
<svg version="1.1" id="Layer_1" xmlns="http://www.w3.org/2000/svg" xmlns:xlink="http://www.w3.org/1999/xlink" x="0px" y="0px"
	 viewBox="0 0 486 274" style="enable-background:new 0 0 486 274;" xml:space="preserve">
<style type="text/css">
	.st0{fill:#FF454B;}
	.st1{fill:#FFFFFF;}
</style>
<path class="st0" d="M27.3,29.3c-2.6,0-4.7,2.1-4.7,4.7c0,2.6,2.1,4.7,4.7,4.7S32,36.6,32,34C32,31.4,29.9,29.3,27.3,29.3z"/>
<path class="st1" d="M429.9,176c-0.7,0-1.3,0.6-1.3,1.3V216h-38.7c-0.7,0-1.3,0.6-1.3,1.3c0,0.7,0.6,1.3,1.3,1.3h41.3v-41.3
	C431.3,176.6,430.7,176,429.9,176z M96,216H57.3v-38.7c0-0.7-0.6-1.3-1.3-1.3c-0.7,0-1.3,0.6-1.3,1.3v41.3H96c0.7,0,1.3-0.6,1.3-1.3
	C97.3,216.6,96.7,216,96,216z M388.6,56c0,0.7,0.6,1.3,1.3,1.3h38.7V96c0,0.7,0.6,1.3,1.3,1.3s1.3-0.6,1.3-1.3V54.7h-41.3
	C389.2,54.7,388.6,55.3,388.6,56z M97.3,56c0,0.7-0.6,1.3-1.3,1.3H57.3V96c0,0.7-0.6,1.3-1.3,1.3c-0.7,0-1.3-0.6-1.3-1.3V54.7H96
	C96.7,54.7,97.3,55.3,97.3,56z"/>
<path class="st1" d="M108.7,35c0-0.4,0.3-0.7,0.7-0.7c0.4,0,0.7,0.3,0.7,0.7s-0.3,0.7-0.7,0.7C109,35.7,108.7,35.4,108.7,35z
	 M108.7,32.3c0-0.4,0.3-0.7,0.7-0.7c0.4,0,0.7,0.3,0.7,0.7c0,0.4-0.3,0.7-0.7,0.7C109,33,108.7,32.7,108.7,32.3z M112.7,36.3V31
	c0-0.4,0.3-0.7,0.7-0.7h1.3c0.4,0,0.7,0.3,0.7,0.7v5.3c0,0.4-0.3,0.7-0.7,0.7h-1.3C113,37,112.7,36.7,112.7,36.3z M116.7,36.3V31
	c0-1.1-0.9-2-2-2h-1.3c-1.1,0-2,0.9-2,2v5.3c0,1.1,0.9,2,2,2h1.3C115.8,38.3,116.7,37.4,116.7,36.3z M122,36.3
	c0,0.4-0.3,0.7-0.7,0.7H120c-0.4,0-0.7-0.3-0.7-0.7V31c0-0.4,0.3-0.7,0.7-0.7h1.3c0.4,0,0.7,0.3,0.7,0.7V36.3z M121.3,29H120
	c-1.1,0-2,0.9-2,2v5.3c0,1.1,0.9,2,2,2h1.3c1.1,0,2-0.9,2-2V31C123.3,29.9,122.4,29,121.3,29z M92.7,35c0-0.4,0.3-0.7,0.7-0.7
	c0.4,0,0.7,0.3,0.7,0.7s-0.3,0.7-0.7,0.7C93,35.7,92.7,35.4,92.7,35z M92.7,32.3c0-0.4,0.3-0.7,0.7-0.7c0.4,0,0.7,0.3,0.7,0.7
	c0,0.4-0.3,0.7-0.7,0.7C93,33,92.7,32.7,92.7,32.3z M103.3,36.3V31c0-0.4,0.3-0.7,0.7-0.7h1.3c0.4,0,0.7,0.3,0.7,0.7v5.3
	c0,0.4-0.3,0.7-0.7,0.7H104C103.6,37,103.3,36.7,103.3,36.3z M107.3,36.3V31c0-1.1-0.9-2-2-2H104c-1.1,0-2,0.9-2,2v5.3
	c0,1.1,0.9,2,2,2h1.3C106.4,38.3,107.3,37.4,107.3,36.3z M96.7,36.3V31c0-0.4,0.3-0.7,0.7-0.7h1.3c0.4,0,0.7,0.3,0.7,0.7v5.3
	c0,0.4-0.3,0.7-0.7,0.7h-1.3C97,37,96.7,36.7,96.7,36.3z M100.7,36.3V31c0-1.1-0.9-2-2-2h-1.3c-1.1,0-2,0.9-2,2v5.3c0,1.1,0.9,2,2,2
	h1.3C99.8,38.3,100.7,37.4,100.7,36.3z M87.3,31c0-0.4,0.3-0.7,0.7-0.7h1.3c0.4,0,0.7,0.3,0.7,0.7v5.3c0,0.4-0.3,0.7-0.7,0.7H88
	c-0.4,0-0.7-0.3-0.7-0.7V31z M88,38.3h1.3c1.1,0,2-0.9,2-2V31c0-1.1-0.9-2-2-2H88c-1.1,0-2,0.9-2,2v5.3C86,37.4,86.9,38.3,88,38.3z
	 M80.7,31c0-0.4,0.3-0.7,0.7-0.7h1.3c0.4,0,0.7,0.3,0.7,0.7v5.3c0,0.4-0.3,0.7-0.7,0.7h-1.3c-0.4,0-0.7-0.3-0.7-0.7V31z M81.3,38.3
	h1.3c1.1,0,2-0.9,2-2V31c0-1.1-0.9-2-2-2h-1.3c-1.1,0-2,0.9-2,2v5.3C79.3,37.4,80.2,38.3,81.3,38.3z"/>
<path class="st1" d="M243.5,246.7c-0.2-0.4-0.9-0.4-1.1,0l-2,3.3c-0.1,0.2-0.1,0.5,0,0.7c0.1,0.2,0.3,0.3,0.6,0.3h4
	c0.2,0,0.5-0.1,0.6-0.3c0.1-0.2,0.1-0.5,0-0.7L243.5,246.7z M303.6,235.1v8c0,0.4-0.3,0.7-0.7,0.7h-60h-60c-0.4,0-0.7-0.3-0.7-0.7
	v-8c0-0.4,0.3-0.7,0.7-0.7c0.4,0,0.7,0.3,0.7,0.7v7.3h2.7v-3.3c0-0.4,0.3-0.7,0.7-0.7c0.4,0,0.7,0.3,0.7,0.7v3.3h2.7v-3.3
	c0-0.4,0.3-0.7,0.7-0.7c0.4,0,0.7,0.3,0.7,0.7v3.3h2.7v-3.3c0-0.4,0.3-0.7,0.7-0.7c0.4,0,0.7,0.3,0.7,0.7v3.3h2.7v-3.3
	c0-0.4,0.3-0.7,0.7-0.7c0.4,0,0.7,0.3,0.7,0.7v3.3h2.7v-7.3c0-0.4,0.3-0.7,0.7-0.7c0.4,0,0.7,0.3,0.7,0.7v7.3h2.7v-3.3
	c0-0.4,0.3-0.7,0.7-0.7c0.4,0,0.7,0.3,0.7,0.7v3.3h2.7v-3.3c0-0.4,0.3-0.7,0.7-0.7c0.4,0,0.7,0.3,0.7,0.7v3.3h2.7v-3.3
	c0-0.4,0.3-0.7,0.7-0.7c0.4,0,0.7,0.3,0.7,0.7v3.3h2.7v-3.3c0-0.4,0.3-0.7,0.7-0.7c0.4,0,0.7,0.3,0.7,0.7v3.3h2.7v-7.3
	c0-0.4,0.3-0.7,0.7-0.7c0.4,0,0.7,0.3,0.7,0.7v7.3h2.7v-3.3c0-0.4,0.3-0.7,0.7-0.7c0.4,0,0.7,0.3,0.7,0.7v3.3h2.7v-3.3
	c0-0.4,0.3-0.7,0.7-0.7c0.4,0,0.7,0.3,0.7,0.7v3.3h2.7v-3.3c0-0.4,0.3-0.7,0.7-0.7c0.4,0,0.7,0.3,0.7,0.7v3.3h2.7v-3.3
	c0-0.4,0.3-0.7,0.7-0.7c0.4,0,0.7,0.3,0.7,0.7v3.3h2.7v-7.3c0-0.4,0.3-0.7,0.7-0.7c0.4,0,0.7,0.3,0.7,0.7v7.3h2.7v-3.3
	c0-0.4,0.3-0.7,0.7-0.7c0.4,0,0.7,0.3,0.7,0.7v3.3h2.7v-3.3c0-0.4,0.3-0.7,0.7-0.7c0.4,0,0.7,0.3,0.7,0.7v3.3h2.7v-3.3
	c0-0.4,0.3-0.7,0.7-0.7c0.4,0,0.7,0.3,0.7,0.7v3.3h2.7v-3.3c0-0.4,0.3-0.7,0.7-0.7c0.4,0,0.7,0.3,0.7,0.7v3.3h2.7v-7.3
	c0-0.4,0.3-0.7,0.7-0.7c0.4,0,0.7,0.3,0.7,0.7v7.3h2.7v-3.3c0-0.4,0.3-0.7,0.7-0.7c0.4,0,0.7,0.3,0.7,0.7v3.3h2.7v-3.3
	c0-0.4,0.3-0.7,0.7-0.7c0.4,0,0.7,0.3,0.7,0.7v3.3h2.7v-3.3c0-0.4,0.3-0.7,0.7-0.7c0.4,0,0.7,0.3,0.7,0.7v3.3h2.7v-3.3
	c0-0.4,0.3-0.7,0.7-0.7c0.4,0,0.7,0.3,0.7,0.7v3.3h2.7v-7.3c0-0.4,0.3-0.7,0.7-0.7c0.4,0,0.7,0.3,0.7,0.7v7.3h2.7v-3.3
	c0-0.4,0.3-0.7,0.7-0.7c0.4,0,0.7,0.3,0.7,0.7v3.3h2.7v-3.3c0-0.4,0.3-0.7,0.7-0.7c0.4,0,0.7,0.3,0.7,0.7v3.3h2.7v-3.3
	c0-0.4,0.3-0.7,0.7-0.7c0.4,0,0.7,0.3,0.7,0.7v3.3h2.7v-3.3c0-0.4,0.3-0.7,0.7-0.7c0.4,0,0.7,0.3,0.7,0.7v3.3h2.7v-7.3
	c0-0.4,0.3-0.7,0.7-0.7C303.3,234.4,303.6,234.7,303.6,235.1z"/>
<path class="st1" d="M341.1,242.1h-3.3v-7.3c0-0.4-0.3-0.7-0.7-0.7c-0.4,0-0.7,0.3-0.7,0.7v8c0,0.4,0.3,0.7,0.7,0.7h4
	c0.4,0,0.7-0.3,0.7-0.7C341.8,242.4,341.5,242.1,341.1,242.1z M345.1,235.4c-0.4,0-0.7,0.3-0.7,0.7v5.3c0,0.4,0.3,0.7,0.7,0.7
	c0.4,0,0.7-0.3,0.7-0.7v-5.3C345.8,235.7,345.5,235.4,345.1,235.4z M381.1,235.4c-0.4,0-0.7,0.3-0.7,0.7v5.3c0,0.4,0.3,0.7,0.7,0.7
	c0.4,0,0.7-0.3,0.7-0.7v-5.3C381.8,235.7,381.5,235.4,381.1,235.4z M349.1,235.4c-0.4,0-0.7,0.3-0.7,0.7v5.3c0,0.4,0.3,0.7,0.7,0.7
	c0.4,0,0.7-0.3,0.7-0.7v-5.3C349.8,235.7,349.5,235.4,349.1,235.4z M353.1,235.4c-0.4,0-0.7,0.3-0.7,0.7v5.3c0,0.4,0.3,0.7,0.7,0.7
	c0.4,0,0.7-0.3,0.7-0.7v-5.3C353.8,235.7,353.5,235.4,353.1,235.4z M357.1,235.4c-0.4,0-0.7,0.3-0.7,0.7v5.3c0,0.4,0.3,0.7,0.7,0.7
	c0.4,0,0.7-0.3,0.7-0.7v-5.3C357.8,235.7,357.5,235.4,357.1,235.4z M361.1,235.4c-0.4,0-0.7,0.3-0.7,0.7v5.3c0,0.4,0.3,0.7,0.7,0.7
	c0.4,0,0.7-0.3,0.7-0.7v-5.3C361.8,235.7,361.5,235.4,361.1,235.4z M365.1,235.4c-0.4,0-0.7,0.3-0.7,0.7v5.3c0,0.4,0.3,0.7,0.7,0.7
	c0.4,0,0.7-0.3,0.7-0.7v-5.3C365.8,235.7,365.5,235.4,365.1,235.4z M369.1,235.4c-0.4,0-0.7,0.3-0.7,0.7v5.3c0,0.4,0.3,0.7,0.7,0.7
	c0.4,0,0.7-0.3,0.7-0.7v-5.3C369.8,235.7,369.5,235.4,369.1,235.4z M373.1,235.4c-0.4,0-0.7,0.3-0.7,0.7v5.3c0,0.4,0.3,0.7,0.7,0.7
	c0.4,0,0.7-0.3,0.7-0.7v-5.3C373.8,235.7,373.5,235.4,373.1,235.4z M377.8,236.1v5.3c0,0.4-0.3,0.7-0.7,0.7c-0.4,0-0.7-0.3-0.7-0.7
	v-5.3c0-0.4,0.3-0.7,0.7-0.7C377.5,235.4,377.8,235.7,377.8,236.1z"/>
<path class="st1" d="M413.9,236.1c0-0.4-0.3-0.7-0.7-0.7h-2v2.7h2c0.4,0,0.7-0.3,0.7-0.7V236.1z M415.3,236.1v1.3c0,1.1-0.9,2-2,2
	h-1.1l2.9,2.9c0.3,0.3,0.3,0.7,0,0.9c-0.1,0.1-0.3,0.2-0.5,0.2c-0.2,0-0.3-0.1-0.5-0.2l-2.9-2.9v2.4c0,0.4-0.3,0.7-0.7,0.7
	c-0.4,0-0.7-0.3-0.7-0.7v-4v-4c0-0.4,0.3-0.7,0.7-0.7h2.7C414.4,234.1,415.3,235,415.3,236.1L415.3,236.1z M418.6,235.4
	c-0.4,0-0.7,0.3-0.7,0.7v5.3c0,0.4,0.3,0.7,0.7,0.7c0.4,0,0.7-0.3,0.7-0.7v-5.3C419.3,235.7,419,235.4,418.6,235.4z M422.6,235.4
	c-0.4,0-0.7,0.3-0.7,0.7v5.3c0,0.4,0.3,0.7,0.7,0.7c0.4,0,0.7-0.3,0.7-0.7v-5.3C423.3,235.7,423,235.4,422.6,235.4z M426.6,235.4
	c-0.4,0-0.7,0.3-0.7,0.7v5.3c0,0.4,0.3,0.7,0.7,0.7c0.4,0,0.7-0.3,0.7-0.7v-5.3C427.3,235.7,427,235.4,426.6,235.4z M430.6,235.4
	c-0.4,0-0.7,0.3-0.7,0.7v5.3c0,0.4,0.3,0.7,0.7,0.7c0.4,0,0.7-0.3,0.7-0.7v-5.3C431.3,235.7,431,235.4,430.6,235.4z M434.6,235.4
	c-0.4,0-0.7,0.3-0.7,0.7v5.3c0,0.4,0.3,0.7,0.7,0.7c0.4,0,0.7-0.3,0.7-0.7v-5.3C435.3,235.7,435,235.4,434.6,235.4z M439.3,236.1
	v5.3c0,0.4-0.3,0.7-0.7,0.7c-0.4,0-0.7-0.3-0.7-0.7v-5.3c0-0.4,0.3-0.7,0.7-0.7C439,235.4,439.3,235.7,439.3,236.1z"/>
<path class="st1" d="M112,241.7c-0.4,0-0.7,0.3-0.7,0.7c0,0.4,0.3,0.7,0.7,0.7c0.4,0,0.7-0.3,0.7-0.7
	C112.7,242,112.4,241.7,112,241.7L112,241.7z M118.7,235.1c0.4,0,0.7-0.3,0.7-0.7c0-0.4-0.3-0.7-0.7-0.7h-4c-0.4,0-0.7,0.3-0.7,0.7
	v4c0,0.4,0.3,0.7,0.7,0.7h2.7c0.4,0,0.7,0.3,0.7,0.7v1.3c0,0.4-0.3,0.7-0.7,0.7h-2.7c-0.4,0-0.7,0.3-0.7,0.7c0,0.4,0.3,0.7,0.7,0.7
	h2.7c1.1,0,2-0.9,2-2v-1.3c0-1.1-0.9-2-2-2h-2v-2.7H118.7z M108,233.7h-2.7c-0.4,0-0.7,0.3-0.7,0.7c0,0.4,0.3,0.7,0.7,0.7h2.7
	c0.4,0,0.7,0.3,0.7,0.7v1.3c0,0.4-0.3,0.7-0.7,0.7h-1.3c-0.4,0-0.7,0.3-0.7,0.7c0,0.4,0.3,0.7,0.7,0.7h1.3c0.4,0,0.7,0.3,0.7,0.7
	v1.3c0,0.4-0.3,0.7-0.7,0.7h-2.7c-0.4,0-0.7,0.3-0.7,0.7c0,0.4,0.3,0.7,0.7,0.7h2.7c1.1,0,2-0.9,2-2v-1.3c0-0.5-0.2-1-0.5-1.3
	c0.3-0.4,0.5-0.8,0.5-1.3v-1.3C110,234.6,109.1,233.7,108,233.7z M103.3,234.4c0,0.4-0.3,0.7-0.7,0.7h-3.3v2.7h2
	c0.4,0,0.7,0.3,0.7,0.7c0,0.4-0.3,0.7-0.7,0.7h-2v3.3c0,0.4-0.3,0.7-0.7,0.7c-0.4,0-0.7-0.3-0.7-0.7v-8c0-0.4,0.3-0.7,0.7-0.7h4
	C103,233.7,103.3,234,103.3,234.4z"/>
<path class="st1" d="M235.9,136.8c0-0.1,0.1-0.2,0.2-0.2h6.5v-6.5c0-0.1,0.1-0.2,0.2-0.2c0.1,0,0.2,0.1,0.2,0.2v6.5h6.5
	c0.1,0,0.2,0.1,0.2,0.2s-0.1,0.2-0.2,0.2H243v6.5c0,0.1-0.1,0.2-0.2,0.2c-0.1,0-0.2-0.1-0.2-0.2V137h-6.5
	C236,137,235.9,136.9,235.9,136.8z"/>
<path class="st1" d="M70,241.4c0,0.4-0.3,0.7-0.7,0.7H68c-0.4,0-0.7-0.3-0.7-0.7v-5.3c0-0.4,0.3-0.7,0.7-0.7h1.3
	c0.4,0,0.7,0.3,0.7,0.7V241.4z M69.3,234.1H68c-1.1,0-2,0.9-2,2v5.3c0,1.1,0.9,2,2,2h1.3c1.1,0,2-0.9,2-2v-5.3
	C71.3,235,70.4,234.1,69.3,234.1z M62.7,241.4c0,0.4-0.3,0.7-0.7,0.7h-1.3c-0.4,0-0.7-0.3-0.7-0.7v-5.3c0-0.4,0.3-0.7,0.7-0.7H62
	c0.4,0,0.7,0.3,0.7,0.7V241.4z M62,234.1h-1.3c-1.1,0-2,0.9-2,2v5.3c0,1.1,0.9,2,2,2H62c1.1,0,2-0.9,2-2v-5.3
	C64,235,63.1,234.1,62,234.1z M56.7,234.7v8c0,0.4-0.3,0.7-0.7,0.7c-0.4,0-0.7-0.3-0.7-0.7v-6.4l-1.5,1.5c-0.3,0.3-0.7,0.3-0.9,0
	c-0.3-0.3-0.3-0.7,0-0.9l2.7-2.7c0.2-0.2,0.5-0.2,0.7-0.1C56.5,234.2,56.7,234.5,56.7,234.7L56.7,234.7z M35.3,234.7v8
	c0,0.4-0.3,0.7-0.7,0.7c-0.4,0-0.7-0.3-0.7-0.7v-8c0-0.4,0.3-0.7,0.7-0.7C35,234.1,35.3,234.4,35.3,234.7z M38.7,236.1v1.3
	c0,0.4,0.3,0.7,0.7,0.7h1.3c1.1,0,2,0.9,2,2v1.3c0,1.1-0.9,2-2,2h-1.3c-1.1,0-2-0.9-2-2c0-0.4,0.3-0.7,0.7-0.7
	c0.4,0,0.7,0.3,0.7,0.7c0,0.4,0.3,0.7,0.7,0.7h1.3c0.4,0,0.7-0.3,0.7-0.7v-1.3c0-0.4-0.3-0.7-0.7-0.7h-1.3c-1.1,0-2-0.9-2-2v-1.3
	c0-1.1,0.9-2,2-2h1.3c1.1,0,2,0.9,2,2c0,0.4-0.3,0.7-0.7,0.7c-0.4,0-0.7-0.3-0.7-0.7c0-0.4-0.3-0.7-0.7-0.7h-1.3
	C39,235.4,38.7,235.7,38.7,236.1z M48.7,241.4c0,0.4-0.3,0.7-0.7,0.7h-1.3c-0.4,0-0.7-0.3-0.7-0.7v-5.3c0-0.4,0.3-0.7,0.7-0.7H48
	c0.4,0,0.7,0.3,0.7,0.7V241.4z M48,234.1h-1.3c-1.1,0-2,0.9-2,2v5.3c0,1.1,0.9,2,2,2H48c1.1,0,2-0.9,2-2v-5.3
	C50,235,49.1,234.1,48,234.1z"/>
<path class="st1" d="M359.8,32.3c0,0.4-0.3,0.7-0.7,0.7h-2v-2.7h2c0.4,0,0.7,0.3,0.7,0.7V32.3z M361.1,32.3V31c0-1.1-0.9-2-2-2h-2.7
	c-0.4,0-0.7,0.3-0.7,0.7v8c0,0.4,0.3,0.7,0.7,0.7c0.4,0,0.7-0.3,0.7-0.7v-3.3h2C360.2,34.3,361.1,33.4,361.1,32.3z M354.4,29.7
	c0,0.4-0.3,0.7-0.7,0.7h-3.3V33h2c0.4,0,0.7,0.3,0.7,0.7s-0.3,0.7-0.7,0.7h-2v3.3c0,0.4-0.3,0.7-0.7,0.7c-0.4,0-0.7-0.3-0.7-0.7v-8
	c0-0.4,0.3-0.7,0.7-0.7h4C354.1,29,354.4,29.3,354.4,29.7z M363.8,31v1.3c0,0.4,0.3,0.7,0.7,0.7h1.3c1.1,0,2,0.9,2,2v1.3
	c0,1.1-0.9,2-2,2h-1.3c-1.1,0-2-0.9-2-2c0-0.4,0.3-0.7,0.7-0.7c0.4,0,0.7,0.3,0.7,0.7c0,0.4,0.3,0.7,0.7,0.7h1.3
	c0.4,0,0.7-0.3,0.7-0.7V35c0-0.4-0.3-0.7-0.7-0.7h-1.3c-1.1,0-2-0.9-2-2V31c0-1.1,0.9-2,2-2h1.3c1.1,0,2,0.9,2,2
	c0,0.4-0.3,0.7-0.7,0.7c-0.4,0-0.7-0.3-0.7-0.7c0-0.4-0.3-0.7-0.7-0.7h-1.3C364.1,30.3,363.8,30.6,363.8,31z M373.8,34.3
	c0.4,0,0.7,0.3,0.7,0.7v1.3c0,0.4-0.3,0.7-0.7,0.7h-1.3c-0.4,0-0.7-0.3-0.7-0.7v-2H373.8z M372.4,30.3h2.7c0.4,0,0.7-0.3,0.7-0.7
	s-0.3-0.7-0.7-0.7h-2.7c-1.1,0-2,0.9-2,2v5.3c0,1.1,0.9,2,2,2h1.3c1.1,0,2-0.9,2-2V35c0-1.1-0.9-2-2-2h-2v-2
	C371.8,30.6,372.1,30.3,372.4,30.3z M381.1,36.3c0,0.4-0.3,0.7-0.7,0.7h-1.3c-0.4,0-0.7-0.3-0.7-0.7V31c0-0.4,0.3-0.7,0.7-0.7h1.3
	c0.4,0,0.7,0.3,0.7,0.7V36.3z M380.4,29h-1.3c-1.1,0-2,0.9-2,2v5.3c0,1.1,0.9,2,2,2h1.3c1.1,0,2-0.9,2-2V31
	C382.4,29.9,381.5,29,380.4,29z"/>
<path class="st1" d="M42.7,37.7c0,0.4,0.3,0.7,0.7,0.7c0.4,0,0.7-0.3,0.7-0.7v-2.4l2.9,2.9c0.1,0.1,0.3,0.2,0.5,0.2
	c0.2,0,0.3-0.1,0.5-0.2c0.3-0.3,0.3-0.7,0-0.9l-2.9-2.9H46c1.1,0,2-0.9,2-2V31c0-1.1-0.9-2-2-2h-2.7c-0.4,0-0.7,0.3-0.7,0.7v4V37.7z
	 M49.3,37.7c0,0.4,0.3,0.7,0.7,0.7h4c0.4,0,0.7-0.3,0.7-0.7S54.4,37,54,37h-3.3v-2.7h2c0.4,0,0.7-0.3,0.7-0.7S53,33,52.7,33h-2v-2.7
	H54c0.4,0,0.7-0.3,0.7-0.7S54.4,29,54,29h-4c-0.4,0-0.7,0.3-0.7,0.7V37.7z M56,36.3c0,1.1,0.9,2,2,2h2.7c0.4,0,0.7-0.3,0.7-0.7
	S61,37,60.7,37H58c-0.4,0-0.7-0.3-0.7-0.7V31c0-0.4,0.3-0.7,0.7-0.7h2.7c0.4,0,0.7-0.3,0.7-0.7S61,29,60.7,29H58c-1.1,0-2,0.9-2,2
	V36.3z M39.3,42c-1.8,0-3.3-1.5-3.3-3.3v-10c0-1.8,1.5-3.3,3.3-3.3h25.3c1.8,0,3.3,1.5,3.3,3.3v10c0,1.8-1.5,3.3-3.3,3.3H39.3z
	 M46,33h-2v-2.7h2c0.4,0,0.7,0.3,0.7,0.7v1.3C46.7,32.7,46.4,33,46,33z"/>
<path class="st1" d="M455.8,37.2c0.3,0.3,0.3,0.7,0,0.9c-0.1,0.1-0.3,0.2-0.5,0.2c-0.2,0-0.3-0.1-0.5-0.2l-2.9-2.9v2.4
	c0,0.4-0.3,0.7-0.7,0.7c-0.4,0-0.7-0.3-0.7-0.7v-8c0-0.4,0.3-0.7,0.7-0.7c0.4,0,0.7,0.3,0.7,0.7v2.4l2.9-2.9c0.3-0.3,0.7-0.3,0.9,0
	c0.3,0.3,0.3,0.7,0,0.9l-3.5,3.5L455.8,37.2z M448,32.3c0,0.4-0.3,0.7-0.7,0.7H446c-0.4,0-0.7-0.3-0.7-0.7V31c0-0.4,0.3-0.7,0.7-0.7
	h1.3c0.4,0,0.7,0.3,0.7,0.7V32.3z M448,36.3c0,0.4-0.3,0.7-0.7,0.7H446c-0.4,0-0.7-0.3-0.7-0.7V35c0-0.4,0.3-0.7,0.7-0.7h1.3
	c0.4,0,0.7,0.3,0.7,0.7V36.3z M447.3,29H446c-1.1,0-2,0.9-2,2v1.3c0,0.5,0.2,1,0.5,1.3c-0.3,0.4-0.5,0.8-0.5,1.3v1.3
	c0,1.1,0.9,2,2,2h1.3c1.1,0,2-0.9,2-2V35c0-0.5-0.2-1-0.5-1.3c0.3-0.4,0.5-0.8,0.5-1.3V31C449.3,29.9,448.4,29,447.3,29z
	 M413.2,30.3h2c0.4,0,0.7,0.3,0.7,0.7v5.3c0,0.4-0.3,0.7-0.7,0.7h-2V30.3z M412.5,38.3h2.7c1.1,0,2-0.9,2-2V31c0-1.1-0.9-2-2-2h-2.7
	c-0.4,0-0.7,0.3-0.7,0.7v8C411.8,38,412.1,38.3,412.5,38.3z M405.2,37.7v-8c0-0.4,0.3-0.7,0.7-0.7c0.4,0,0.7,0.3,0.7,0.7V33h2.7
	v-3.3c0-0.4,0.3-0.7,0.7-0.7c0.4,0,0.7,0.3,0.7,0.7v8c0,0.4-0.3,0.7-0.7,0.7c-0.4,0-0.7-0.3-0.7-0.7v-3.3h-2.7v3.3
	c0,0.4-0.3,0.7-0.7,0.7C405.5,38.3,405.2,38,405.2,37.7z M436.4,37.2c0.3,0.3,0.3,0.7,0,0.9c-0.1,0.1-0.3,0.2-0.5,0.2
	s-0.3-0.1-0.5-0.2l-2.9-2.9v2.4c0,0.4-0.3,0.7-0.7,0.7c-0.4,0-0.7-0.3-0.7-0.7v-8c0-0.4,0.3-0.7,0.7-0.7c0.4,0,0.7,0.3,0.7,0.7v2.4
	l2.9-2.9c0.3-0.3,0.7-0.3,0.9,0c0.3,0.3,0.3,0.7,0,0.9l-3.5,3.5L436.4,37.2z M429.9,37.7c0,0.4-0.3,0.7-0.7,0.7
	c-0.4,0-0.7-0.3-0.7-0.7v-3.3h-3.3c-0.4,0-0.7-0.3-0.7-0.7v-4c0-0.4,0.3-0.7,0.7-0.7c0.4,0,0.7,0.3,0.7,0.7V33h2.7v-3.3
	c0-0.4,0.3-0.7,0.7-0.7c0.4,0,0.7,0.3,0.7,0.7V37.7z M437.3,25h-13.3c-1.8,0-3.3,1.5-3.3,3.3V39c0,1.8,1.5,3.3,3.3,3.3h13.3
	c1.8,0,3.3-1.5,3.3-3.3V28.3C440.6,26.5,439.1,25,437.3,25z"/>
</svg>
